<mxfile host="app.diagrams.net" modified="2023-08-29T19:21:45.302Z" agent="Mozilla/5.0 (Windows NT 10.0; Win64; x64) AppleWebKit/537.36 (KHTML, like Gecko) Chrome/116.0.0.0 Safari/537.36" etag="KzT9vHDJO7IpVYgFaJLS" version="21.6.9" type="device">
  <diagram id="C5RBs43oDa-KdzZeNtuy" name="Page-1">
    <mxGraphModel dx="2327" dy="774" grid="1" gridSize="10" guides="1" tooltips="1" connect="1" arrows="1" fold="1" page="1" pageScale="1" pageWidth="827" pageHeight="1169" math="0" shadow="0">
      <root>
        <mxCell id="WIyWlLk6GJQsqaUBKTNV-0" />
        <mxCell id="WIyWlLk6GJQsqaUBKTNV-1" parent="WIyWlLk6GJQsqaUBKTNV-0" />
        <mxCell id="Y-1ek1opvJNbYMRfVKPY-57" value="" style="endArrow=none;html=1;rounded=0;" edge="1" parent="WIyWlLk6GJQsqaUBKTNV-1">
          <mxGeometry width="50" height="50" relative="1" as="geometry">
            <mxPoint x="440" y="1100" as="sourcePoint" />
            <mxPoint x="280" y="680" as="targetPoint" />
          </mxGeometry>
        </mxCell>
        <mxCell id="WIyWlLk6GJQsqaUBKTNV-2" value="" style="rounded=0;html=1;jettySize=auto;orthogonalLoop=1;fontSize=11;endArrow=classic;endFill=1;endSize=8;strokeWidth=1;shadow=0;labelBackgroundColor=none;edgeStyle=orthogonalEdgeStyle;" parent="WIyWlLk6GJQsqaUBKTNV-1" source="WIyWlLk6GJQsqaUBKTNV-3" edge="1">
          <mxGeometry relative="1" as="geometry">
            <mxPoint x="360" y="180" as="targetPoint" />
          </mxGeometry>
        </mxCell>
        <mxCell id="WIyWlLk6GJQsqaUBKTNV-3" value="START" style="rounded=1;whiteSpace=wrap;html=1;fontSize=12;glass=0;strokeWidth=1;shadow=0;fillColor=#dae8fc;strokeColor=#6c8ebf;" parent="WIyWlLk6GJQsqaUBKTNV-1" vertex="1">
          <mxGeometry x="270" y="40" width="180" height="100" as="geometry" />
        </mxCell>
        <mxCell id="Y-1ek1opvJNbYMRfVKPY-22" style="edgeStyle=orthogonalEdgeStyle;rounded=0;orthogonalLoop=1;jettySize=auto;html=1;entryX=0.5;entryY=0;entryDx=0;entryDy=0;" edge="1" parent="WIyWlLk6GJQsqaUBKTNV-1" source="Y-1ek1opvJNbYMRfVKPY-20" target="Y-1ek1opvJNbYMRfVKPY-21">
          <mxGeometry relative="1" as="geometry" />
        </mxCell>
        <mxCell id="Y-1ek1opvJNbYMRfVKPY-20" value="Oczekiwanie na ułożenie 10-ciu statków na własnej planszy" style="rounded=1;whiteSpace=wrap;html=1;fontSize=12;glass=0;strokeWidth=1;shadow=0;fillColor=#dae8fc;strokeColor=#6c8ebf;" vertex="1" parent="WIyWlLk6GJQsqaUBKTNV-1">
          <mxGeometry x="270" y="180" width="180" height="100" as="geometry" />
        </mxCell>
        <mxCell id="Y-1ek1opvJNbYMRfVKPY-26" style="edgeStyle=orthogonalEdgeStyle;rounded=0;orthogonalLoop=1;jettySize=auto;html=1;exitX=0.5;exitY=1;exitDx=0;exitDy=0;entryX=0.5;entryY=0;entryDx=0;entryDy=0;" edge="1" parent="WIyWlLk6GJQsqaUBKTNV-1" source="Y-1ek1opvJNbYMRfVKPY-21" target="Y-1ek1opvJNbYMRfVKPY-25">
          <mxGeometry relative="1" as="geometry" />
        </mxCell>
        <mxCell id="Y-1ek1opvJNbYMRfVKPY-21" value="Oczekiwanie na wciśnięcie przycisku START" style="rounded=1;whiteSpace=wrap;html=1;fontSize=12;glass=0;strokeWidth=1;shadow=0;fillColor=#dae8fc;strokeColor=#6c8ebf;" vertex="1" parent="WIyWlLk6GJQsqaUBKTNV-1">
          <mxGeometry x="270" y="320" width="180" height="100" as="geometry" />
        </mxCell>
        <mxCell id="Y-1ek1opvJNbYMRfVKPY-23" value="Gracz ukłąda statki naciskając wybrane&lt;br&gt;kratki na swojej planszy.&lt;br&gt;Należy ułożyć wszystkie 10 statków." style="text;html=1;align=left;verticalAlign=middle;resizable=0;points=[];autosize=1;strokeColor=none;fillColor=none;" vertex="1" parent="WIyWlLk6GJQsqaUBKTNV-1">
          <mxGeometry x="470" y="200" width="230" height="60" as="geometry" />
        </mxCell>
        <mxCell id="Y-1ek1opvJNbYMRfVKPY-24" value="Jeśli gracz ułożył 10 statków i jest gotowy&lt;br&gt;do gry, naciska przycisk start." style="text;html=1;align=left;verticalAlign=middle;resizable=0;points=[];autosize=1;strokeColor=none;fillColor=none;" vertex="1" parent="WIyWlLk6GJQsqaUBKTNV-1">
          <mxGeometry x="470" y="350" width="240" height="40" as="geometry" />
        </mxCell>
        <mxCell id="Y-1ek1opvJNbYMRfVKPY-33" style="edgeStyle=orthogonalEdgeStyle;rounded=0;orthogonalLoop=1;jettySize=auto;html=1;exitX=0.25;exitY=1;exitDx=0;exitDy=0;entryX=1;entryY=0.5;entryDx=0;entryDy=0;" edge="1" parent="WIyWlLk6GJQsqaUBKTNV-1" source="Y-1ek1opvJNbYMRfVKPY-25" target="Y-1ek1opvJNbYMRfVKPY-30">
          <mxGeometry relative="1" as="geometry" />
        </mxCell>
        <mxCell id="Y-1ek1opvJNbYMRfVKPY-34" style="edgeStyle=orthogonalEdgeStyle;rounded=0;orthogonalLoop=1;jettySize=auto;html=1;exitX=0.75;exitY=1;exitDx=0;exitDy=0;entryX=0;entryY=0.5;entryDx=0;entryDy=0;" edge="1" parent="WIyWlLk6GJQsqaUBKTNV-1" source="Y-1ek1opvJNbYMRfVKPY-25" target="Y-1ek1opvJNbYMRfVKPY-31">
          <mxGeometry relative="1" as="geometry" />
        </mxCell>
        <mxCell id="Y-1ek1opvJNbYMRfVKPY-25" value="Sprawdzenie, który gracz pierwszy wcisnął przycisk START" style="rounded=1;whiteSpace=wrap;html=1;fontSize=12;glass=0;strokeWidth=1;shadow=0;fillColor=#dae8fc;strokeColor=#6c8ebf;" vertex="1" parent="WIyWlLk6GJQsqaUBKTNV-1">
          <mxGeometry x="270" y="460" width="180" height="100" as="geometry" />
        </mxCell>
        <mxCell id="Y-1ek1opvJNbYMRfVKPY-28" value="Grę rozpoczyna gracz, który jako pierwszy&lt;br&gt;ułożył statki i wcisnął przycisk start.&lt;br&gt;Gra rozpocznie się tylko wtedy gdy obaj&lt;br&gt;gracze będą gotowi." style="text;html=1;align=left;verticalAlign=middle;resizable=0;points=[];autosize=1;strokeColor=none;fillColor=none;" vertex="1" parent="WIyWlLk6GJQsqaUBKTNV-1">
          <mxGeometry x="465" y="475" width="250" height="70" as="geometry" />
        </mxCell>
        <mxCell id="Y-1ek1opvJNbYMRfVKPY-29" value="Wyświetlane są dwie plansze graczy i przycisk START.&lt;br&gt;" style="text;whiteSpace=wrap;html=1;" vertex="1" parent="WIyWlLk6GJQsqaUBKTNV-1">
          <mxGeometry x="470" y="70" width="310" height="50" as="geometry" />
        </mxCell>
        <mxCell id="Y-1ek1opvJNbYMRfVKPY-39" style="edgeStyle=orthogonalEdgeStyle;rounded=0;orthogonalLoop=1;jettySize=auto;html=1;exitX=0.5;exitY=1;exitDx=0;exitDy=0;entryX=0.5;entryY=0;entryDx=0;entryDy=0;" edge="1" parent="WIyWlLk6GJQsqaUBKTNV-1" source="Y-1ek1opvJNbYMRfVKPY-30" target="Y-1ek1opvJNbYMRfVKPY-37">
          <mxGeometry relative="1" as="geometry" />
        </mxCell>
        <mxCell id="Y-1ek1opvJNbYMRfVKPY-30" value="Zaczyna gracz 1" style="rounded=1;whiteSpace=wrap;html=1;fontSize=12;glass=0;strokeWidth=1;shadow=0;fillColor=#dae8fc;strokeColor=#6c8ebf;" vertex="1" parent="WIyWlLk6GJQsqaUBKTNV-1">
          <mxGeometry x="60" y="600" width="180" height="100" as="geometry" />
        </mxCell>
        <mxCell id="Y-1ek1opvJNbYMRfVKPY-42" style="edgeStyle=orthogonalEdgeStyle;rounded=0;orthogonalLoop=1;jettySize=auto;html=1;exitX=0.5;exitY=1;exitDx=0;exitDy=0;entryX=0.5;entryY=0;entryDx=0;entryDy=0;" edge="1" parent="WIyWlLk6GJQsqaUBKTNV-1" source="Y-1ek1opvJNbYMRfVKPY-31" target="Y-1ek1opvJNbYMRfVKPY-40">
          <mxGeometry relative="1" as="geometry" />
        </mxCell>
        <mxCell id="Y-1ek1opvJNbYMRfVKPY-31" value="Gracz 2 oczekuje na ruch przeciwnika" style="rounded=1;whiteSpace=wrap;html=1;fontSize=12;glass=0;strokeWidth=1;shadow=0;fillColor=#dae8fc;strokeColor=#6c8ebf;" vertex="1" parent="WIyWlLk6GJQsqaUBKTNV-1">
          <mxGeometry x="480" y="600" width="180" height="100" as="geometry" />
        </mxCell>
        <mxCell id="Y-1ek1opvJNbYMRfVKPY-35" value="Gracz 1 wybiera miejsce na siatce&lt;br&gt;przeciwnika i naciskając lewy przycisk myszy,&lt;br&gt;zaznacza pozycję strzału." style="text;html=1;align=right;verticalAlign=middle;resizable=0;points=[];autosize=1;strokeColor=none;fillColor=none;" vertex="1" parent="WIyWlLk6GJQsqaUBKTNV-1">
          <mxGeometry x="-230" y="630" width="270" height="60" as="geometry" />
        </mxCell>
        <mxCell id="Y-1ek1opvJNbYMRfVKPY-36" value="Gracz 2 czeka, aż przeciwnik wybierze&lt;br&gt;współrzędne strzału." style="text;html=1;align=left;verticalAlign=middle;resizable=0;points=[];autosize=1;strokeColor=none;fillColor=none;" vertex="1" parent="WIyWlLk6GJQsqaUBKTNV-1">
          <mxGeometry x="680" y="630" width="230" height="40" as="geometry" />
        </mxCell>
        <mxCell id="Y-1ek1opvJNbYMRfVKPY-46" style="edgeStyle=orthogonalEdgeStyle;rounded=0;orthogonalLoop=1;jettySize=auto;html=1;" edge="1" parent="WIyWlLk6GJQsqaUBKTNV-1" source="Y-1ek1opvJNbYMRfVKPY-37" target="Y-1ek1opvJNbYMRfVKPY-43">
          <mxGeometry relative="1" as="geometry" />
        </mxCell>
        <mxCell id="Y-1ek1opvJNbYMRfVKPY-37" value="Wysłanie informacji do Basysa 2" style="rounded=1;whiteSpace=wrap;html=1;fontSize=12;glass=0;strokeWidth=1;shadow=0;fillColor=#dae8fc;strokeColor=#6c8ebf;" vertex="1" parent="WIyWlLk6GJQsqaUBKTNV-1">
          <mxGeometry x="60" y="750" width="180" height="100" as="geometry" />
        </mxCell>
        <mxCell id="Y-1ek1opvJNbYMRfVKPY-38" value="&lt;span style=&quot;color: rgb(0, 0, 0); font-family: Helvetica; font-size: 12px; font-style: normal; font-variant-ligatures: normal; font-variant-caps: normal; font-weight: 400; letter-spacing: normal; orphans: 2; text-indent: 0px; text-transform: none; widows: 2; word-spacing: 0px; -webkit-text-stroke-width: 0px; background-color: rgb(251, 251, 251); text-decoration-thickness: initial; text-decoration-style: initial; text-decoration-color: initial; float: none; display: inline !important;&quot;&gt;Po wybraniu współrzędnych, Basys 1 przesyła do Basysa 2 informację o strzale i współrzędne.&lt;/span&gt;" style="text;whiteSpace=wrap;html=1;align=right;" vertex="1" parent="WIyWlLk6GJQsqaUBKTNV-1">
          <mxGeometry x="-170" y="780" width="210" height="40" as="geometry" />
        </mxCell>
        <mxCell id="Y-1ek1opvJNbYMRfVKPY-45" style="edgeStyle=orthogonalEdgeStyle;rounded=0;orthogonalLoop=1;jettySize=auto;html=1;exitX=0.5;exitY=1;exitDx=0;exitDy=0;entryX=0.5;entryY=0;entryDx=0;entryDy=0;" edge="1" parent="WIyWlLk6GJQsqaUBKTNV-1" source="Y-1ek1opvJNbYMRfVKPY-40" target="Y-1ek1opvJNbYMRfVKPY-44">
          <mxGeometry relative="1" as="geometry" />
        </mxCell>
        <mxCell id="Y-1ek1opvJNbYMRfVKPY-40" value="Odebranie informacji od Basysa 1" style="rounded=1;whiteSpace=wrap;html=1;fontSize=12;glass=0;strokeWidth=1;shadow=0;fillColor=#dae8fc;strokeColor=#6c8ebf;" vertex="1" parent="WIyWlLk6GJQsqaUBKTNV-1">
          <mxGeometry x="480" y="750" width="180" height="100" as="geometry" />
        </mxCell>
        <mxCell id="Y-1ek1opvJNbYMRfVKPY-41" value="Basys 2 odbiera współrzędne strzału i &lt;br&gt;sprawdza w pamięci czy w podanej&lt;br&gt;pozycji stoi jakiś statek gracza 2." style="text;html=1;align=left;verticalAlign=middle;resizable=0;points=[];autosize=1;strokeColor=none;fillColor=none;" vertex="1" parent="WIyWlLk6GJQsqaUBKTNV-1">
          <mxGeometry x="680" y="770" width="220" height="60" as="geometry" />
        </mxCell>
        <mxCell id="Y-1ek1opvJNbYMRfVKPY-51" style="edgeStyle=orthogonalEdgeStyle;rounded=0;orthogonalLoop=1;jettySize=auto;html=1;exitX=0.5;exitY=1;exitDx=0;exitDy=0;entryX=0.5;entryY=0;entryDx=0;entryDy=0;" edge="1" parent="WIyWlLk6GJQsqaUBKTNV-1" source="Y-1ek1opvJNbYMRfVKPY-43" target="Y-1ek1opvJNbYMRfVKPY-49">
          <mxGeometry relative="1" as="geometry" />
        </mxCell>
        <mxCell id="Y-1ek1opvJNbYMRfVKPY-43" value="Oczekiwanie na odpowiedź od Basysa 2" style="rounded=1;whiteSpace=wrap;html=1;fontSize=12;glass=0;strokeWidth=1;shadow=0;fillColor=#dae8fc;strokeColor=#6c8ebf;" vertex="1" parent="WIyWlLk6GJQsqaUBKTNV-1">
          <mxGeometry x="60" y="900" width="180" height="100" as="geometry" />
        </mxCell>
        <mxCell id="Y-1ek1opvJNbYMRfVKPY-52" style="edgeStyle=orthogonalEdgeStyle;rounded=0;orthogonalLoop=1;jettySize=auto;html=1;exitX=0.5;exitY=1;exitDx=0;exitDy=0;entryX=0.5;entryY=0;entryDx=0;entryDy=0;" edge="1" parent="WIyWlLk6GJQsqaUBKTNV-1" source="Y-1ek1opvJNbYMRfVKPY-44" target="Y-1ek1opvJNbYMRfVKPY-50">
          <mxGeometry relative="1" as="geometry" />
        </mxCell>
        <mxCell id="Y-1ek1opvJNbYMRfVKPY-44" value="Odesłanie informacji o trafieniu/nietrafieniu do Basysa 1" style="rounded=1;whiteSpace=wrap;html=1;fontSize=12;glass=0;strokeWidth=1;shadow=0;fillColor=#dae8fc;strokeColor=#6c8ebf;" vertex="1" parent="WIyWlLk6GJQsqaUBKTNV-1">
          <mxGeometry x="480" y="900" width="180" height="100" as="geometry" />
        </mxCell>
        <mxCell id="Y-1ek1opvJNbYMRfVKPY-47" value="Basys 2 po sprawdzeniu czy przeciwnik trafił,&lt;br&gt;odpowiada wystawiając na porty zewnętrzne&lt;br&gt;odpowiednie dane i odpowiednio modyfikuje&lt;br&gt;własny licznik statków." style="text;html=1;align=left;verticalAlign=middle;resizable=0;points=[];autosize=1;strokeColor=none;fillColor=none;" vertex="1" parent="WIyWlLk6GJQsqaUBKTNV-1">
          <mxGeometry x="680" y="915" width="260" height="70" as="geometry" />
        </mxCell>
        <mxCell id="Y-1ek1opvJNbYMRfVKPY-48" value="Basys 1 zapisuje w swojej pamięci informacje o trafieniu i odpowiednio modyfikuje licznik statków przeciwnika." style="text;whiteSpace=wrap;html=1;align=right;" vertex="1" parent="WIyWlLk6GJQsqaUBKTNV-1">
          <mxGeometry x="-170" y="930" width="210" height="40" as="geometry" />
        </mxCell>
        <mxCell id="Y-1ek1opvJNbYMRfVKPY-69" style="edgeStyle=orthogonalEdgeStyle;rounded=0;orthogonalLoop=1;jettySize=auto;html=1;exitX=0.5;exitY=1;exitDx=0;exitDy=0;entryX=0;entryY=0.5;entryDx=0;entryDy=0;" edge="1" parent="WIyWlLk6GJQsqaUBKTNV-1" source="Y-1ek1opvJNbYMRfVKPY-49" target="Y-1ek1opvJNbYMRfVKPY-66">
          <mxGeometry relative="1" as="geometry" />
        </mxCell>
        <mxCell id="Y-1ek1opvJNbYMRfVKPY-49" value="Sprawdzenie wartości liczników" style="rounded=1;whiteSpace=wrap;html=1;fontSize=12;glass=0;strokeWidth=1;shadow=0;fillColor=#dae8fc;strokeColor=#6c8ebf;" vertex="1" parent="WIyWlLk6GJQsqaUBKTNV-1">
          <mxGeometry x="60" y="1050" width="180" height="100" as="geometry" />
        </mxCell>
        <mxCell id="Y-1ek1opvJNbYMRfVKPY-67" style="edgeStyle=orthogonalEdgeStyle;rounded=0;orthogonalLoop=1;jettySize=auto;html=1;exitX=0.5;exitY=1;exitDx=0;exitDy=0;entryX=1;entryY=0.5;entryDx=0;entryDy=0;" edge="1" parent="WIyWlLk6GJQsqaUBKTNV-1" source="Y-1ek1opvJNbYMRfVKPY-50" target="Y-1ek1opvJNbYMRfVKPY-66">
          <mxGeometry relative="1" as="geometry" />
        </mxCell>
        <mxCell id="Y-1ek1opvJNbYMRfVKPY-50" value="Sprawdzenie wartości liczników" style="rounded=1;whiteSpace=wrap;html=1;fontSize=12;glass=0;strokeWidth=1;shadow=0;fillColor=#dae8fc;strokeColor=#6c8ebf;" vertex="1" parent="WIyWlLk6GJQsqaUBKTNV-1">
          <mxGeometry x="480" y="1040" width="180" height="100" as="geometry" />
        </mxCell>
        <mxCell id="Y-1ek1opvJNbYMRfVKPY-53" value="Po wykonanym strzale Basys 1 sprawdza wartościi liczników i na ich podstawie decyduje czy nastąpił koniec gry." style="text;whiteSpace=wrap;html=1;align=right;" vertex="1" parent="WIyWlLk6GJQsqaUBKTNV-1">
          <mxGeometry x="-170" y="1070" width="210" height="40" as="geometry" />
        </mxCell>
        <mxCell id="Y-1ek1opvJNbYMRfVKPY-54" value="Basys 2 sprawdza wartości liczników i na ich&lt;br&gt;podstawie decyduje czy nastąpił koniec gry." style="text;html=1;align=left;verticalAlign=middle;resizable=0;points=[];autosize=1;strokeColor=none;fillColor=none;" vertex="1" parent="WIyWlLk6GJQsqaUBKTNV-1">
          <mxGeometry x="680" y="1070" width="260" height="40" as="geometry" />
        </mxCell>
        <mxCell id="Y-1ek1opvJNbYMRfVKPY-56" value="" style="endArrow=none;html=1;rounded=0;" edge="1" parent="WIyWlLk6GJQsqaUBKTNV-1">
          <mxGeometry width="50" height="50" relative="1" as="geometry">
            <mxPoint x="280" y="1100" as="sourcePoint" />
            <mxPoint x="440" y="680" as="targetPoint" />
          </mxGeometry>
        </mxCell>
        <mxCell id="Y-1ek1opvJNbYMRfVKPY-63" value="jeśli żaden licznik nie&amp;nbsp; osiągnął wartości 0" style="edgeLabel;html=1;align=center;verticalAlign=middle;resizable=0;points=[];" vertex="1" connectable="0" parent="Y-1ek1opvJNbYMRfVKPY-56">
          <mxGeometry x="-0.6583" relative="1" as="geometry">
            <mxPoint x="53" y="-138" as="offset" />
          </mxGeometry>
        </mxCell>
        <mxCell id="Y-1ek1opvJNbYMRfVKPY-58" value="" style="endArrow=classic;html=1;rounded=0;entryX=0.995;entryY=0.804;entryDx=0;entryDy=0;entryPerimeter=0;" edge="1" parent="WIyWlLk6GJQsqaUBKTNV-1" target="Y-1ek1opvJNbYMRfVKPY-30">
          <mxGeometry width="50" height="50" relative="1" as="geometry">
            <mxPoint x="280" y="680" as="sourcePoint" />
            <mxPoint x="410" y="780" as="targetPoint" />
          </mxGeometry>
        </mxCell>
        <mxCell id="Y-1ek1opvJNbYMRfVKPY-59" value="" style="endArrow=classic;html=1;rounded=0;entryX=-0.011;entryY=0.799;entryDx=0;entryDy=0;entryPerimeter=0;" edge="1" parent="WIyWlLk6GJQsqaUBKTNV-1" target="Y-1ek1opvJNbYMRfVKPY-31">
          <mxGeometry width="50" height="50" relative="1" as="geometry">
            <mxPoint x="440" y="680" as="sourcePoint" />
            <mxPoint x="470" y="680" as="targetPoint" />
          </mxGeometry>
        </mxCell>
        <mxCell id="Y-1ek1opvJNbYMRfVKPY-61" value="" style="endArrow=none;html=1;rounded=0;exitX=1;exitY=0.5;exitDx=0;exitDy=0;" edge="1" parent="WIyWlLk6GJQsqaUBKTNV-1" source="Y-1ek1opvJNbYMRfVKPY-49">
          <mxGeometry width="50" height="50" relative="1" as="geometry">
            <mxPoint x="340" y="1080" as="sourcePoint" />
            <mxPoint x="280" y="1100" as="targetPoint" />
          </mxGeometry>
        </mxCell>
        <mxCell id="Y-1ek1opvJNbYMRfVKPY-62" value="" style="endArrow=none;html=1;rounded=0;exitX=1;exitY=0.5;exitDx=0;exitDy=0;" edge="1" parent="WIyWlLk6GJQsqaUBKTNV-1">
          <mxGeometry width="50" height="50" relative="1" as="geometry">
            <mxPoint x="440" y="1099.76" as="sourcePoint" />
            <mxPoint x="480" y="1099.76" as="targetPoint" />
          </mxGeometry>
        </mxCell>
        <mxCell id="Y-1ek1opvJNbYMRfVKPY-66" value="Koniec gry" style="rounded=1;whiteSpace=wrap;html=1;fontSize=12;glass=0;strokeWidth=1;shadow=0;fillColor=#dae8fc;strokeColor=#6c8ebf;" vertex="1" parent="WIyWlLk6GJQsqaUBKTNV-1">
          <mxGeometry x="270" y="1200" width="180" height="100" as="geometry" />
        </mxCell>
        <mxCell id="Y-1ek1opvJNbYMRfVKPY-70" value="Oba Basysy wyświetlają stosowną informację o&lt;br&gt;wygranej lub przegranej na ekranie gracza." style="text;html=1;align=center;verticalAlign=middle;resizable=0;points=[];autosize=1;strokeColor=none;fillColor=none;" vertex="1" parent="WIyWlLk6GJQsqaUBKTNV-1">
          <mxGeometry x="230" y="1310" width="270" height="40" as="geometry" />
        </mxCell>
      </root>
    </mxGraphModel>
  </diagram>
</mxfile>
